<?xml version="1.0" ?><svg id="Слой_1" style="enable-background:new 0 0 181.4 181.4;" version="1.1" viewBox="0 0 181.4 181.4" xml:space="preserve" xmlns="http://www.w3.org/2000/svg" xmlns:xlink="http://www.w3.org/1999/xlink"><style type="text/css">
	.st0{fill-rule:evenodd;clip-rule:evenodd;fill:#FFFFFF;}
	.st1{fill-rule:evenodd;clip-rule:evenodd;fill:#3FC0F0;}
	.st2{fill-rule:evenodd;clip-rule:evenodd;fill:#3864AD;}
	.st3{fill:#3864AD;}
	.st4{fill-rule:evenodd;clip-rule:evenodd;fill:#FFCC07;}
	.st5{fill:none;stroke:#3864AD;stroke-width:5.6693;stroke-linecap:round;stroke-linejoin:round;stroke-miterlimit:22.9256;}
</style><path class="st0" d="M90.7,11.3c43.8,0,79.4,35.5,79.4,79.4c0,43.8-35.5,79.4-79.4,79.4c-43.8,0-79.4-35.5-79.4-79.4  C11.3,46.9,46.9,11.3,90.7,11.3"/><path class="st1" d="M46.3,81.6c-0.6,2.9-0.9,6-0.9,9.1c0,13.1,5.5,24.9,14.4,33.1l4.8-25.1L46.3,81.6z M85,45.7  c-15.6,1.9-28.7,11.8-35.2,25.4L74.6,68L85,45.7z M131.6,71.1c-6.5-13.6-19.7-23.5-35.2-25.4L106.9,68L131.6,71.1z M121.7,123.9  c8.9-8.3,14.4-20.1,14.4-33.1c0-3.1-0.3-6.2-0.9-9.1l-18.3,17.2L121.7,123.9z M90.7,136.1c8.2,0,15.8-2.2,22.5-6l-22.5-12.4  l-22.5,12.4C74.9,133.9,82.5,136.1,90.7,136.1z"/><polygon class="st4" points="90.7,33.6 106.9,68 144.6,72.7 116.9,98.7 124,136.1 90.7,117.7 57.4,136.1 90.7,90.7 "/><path class="st2" d="M150.8,30.6C135.5,15.2,114.2,5.7,90.7,5.7c-23.5,0-44.7,9.5-60.1,24.9C15.2,46,5.7,67.2,5.7,90.7  c0,23.5,9.5,44.7,24.9,60.1c15.4,15.4,36.6,24.9,60.1,24.9c23.5,0,44.7-9.5,60.1-24.9c15.4-15.4,24.9-36.6,24.9-60.1  C175.7,67.2,166.2,46,150.8,30.6 M104.3,69.2L90.7,40.3L77.2,69c-0.4,1-1.2,1.7-2.3,1.8l-31.7,4l23.2,21.8c0.7,0.6,1.1,1.6,0.9,2.7  l-6,31.4l28-15.4c0.8-0.5,1.9-0.5,2.8,0l28,15.4l-6-31.4c-0.2-0.9,0.1-1.9,0.8-2.6l23.3-21.9l-31.7-4l0,0  C105.6,70.7,104.7,70.1,104.3,69.2z M93.3,32.4l15.5,33l36.2,4.5c1.6,0.2,2.7,1.6,2.5,3.2c-0.1,0.7-0.5,1.4-1,1.8l-26.5,24.8  l6.9,35.8c0.3,1.5-0.7,3-2.2,3.3c-0.7,0.1-1.3,0-1.9-0.3L90.7,121l-31.9,17.6c-1.4,0.8-3.1,0.3-3.8-1.1c-0.3-0.6-0.4-1.3-0.3-1.9  l6.9-35.8L34.9,74.8c-1.1-1.1-1.2-2.9-0.1-4c0.5-0.5,1.1-0.8,1.7-0.9l0,0l36.2-4.5l15.5-33c0.7-1.4,2.3-2,3.8-1.4  C92.5,31.4,93,31.8,93.3,32.4z M70.9,141.7c0-1.6,1.3-2.8,2.8-2.8s2.8,1.3,2.8,2.8v5.7c0,1.6-1.3,2.8-2.8,2.8s-2.8-1.3-2.8-2.8  V141.7z M87.9,133.2c0-1.6,1.3-2.8,2.8-2.8s2.8,1.3,2.8,2.8v5.7c0,1.6-1.3,2.8-2.8,2.8s-2.8-1.3-2.8-2.8V133.2z M104.9,141.7  c0-1.6,1.3-2.8,2.8-2.8c1.6,0,2.8,1.3,2.8,2.8v5.7c0,1.6-1.3,2.8-2.8,2.8c-1.6,0-2.8-1.3-2.8-2.8V141.7z M90.7,0  c50.1,0,90.7,40.6,90.7,90.7c0,50.1-40.6,90.7-90.7,90.7C40.6,181.4,0,140.8,0,90.7C0,40.6,40.6,0,90.7,0z"/></svg>